<?xml version="1.0" encoding="UTF-8"?>
<!DOCTYPE svg PUBLIC "-//W3C//DTD SVG 1.1//EN" "http://www.w3.org/Graphics/SVG/1.1/DTD/svg11.dtd">
<!-- Creator: CorelDRAW 2020 (64-Bit) -->
<svg xmlns="http://www.w3.org/2000/svg" xml:space="preserve" width="162.56mm" height="423.333mm" version="1.1" style="shape-rendering:geometricPrecision; text-rendering:geometricPrecision; image-rendering:optimizeQuality; fill-rule:evenodd; clip-rule:evenodd"
viewBox="0 0 16256 42333.32"
 xmlns:xlink="http://www.w3.org/1999/xlink"
 xmlns:xodm="http://www.corel.com/coreldraw/odm/2003">
 <defs>
  <style type="text/css">
   <![CDATA[
    .fil0 {fill:#587F37;fill-rule:nonzero}
   ]]>
  </style>
 </defs>
 <g id="Layer_x0020_1">
  <metadata id="CorelCorpID_0Corel-Layer"/>
  <g id="_1456431259168">
   <path class="fil0" d="M1668.46 2381.64l0 463.4 420.09 0 0 223.46 -420.09 0 0 870.16c0,200.07 56.69,313.41 220.04,313.41 76.67,0 133.37,-9.98 170.04,-20.03l13.33 220.1c-56.69,23.26 -146.71,39.96 -260.06,39.96 -136.66,0 -246.71,-43.32 -316.74,-123.34 -83.37,-86.72 -113.34,-230.03 -113.34,-420.11l0 -880.15 -250.07 0 0 -223.46 250.07 0 0 -386.73 286.73 -76.67z"/>
   <path class="fil0" d="M2191.89 3348.53c0,-190.06 -3.34,-353.41 -13.33,-503.47l256.7 0 10.05 316.75 13.27 0c73.39,-216.69 250.12,-353.42 446.84,-353.42 33.31,0 56.65,3.36 83.31,9.99l0 276.74c-30.02,-6.63 -60.04,-9.99 -100.01,-9.99 -206.75,0 -353.41,156.7 -393.42,376.75 -6.69,40.01 -13.34,86.72 -13.34,136.72l0 860.18 -290.07 0 0 -1110.25z"/>
   <path class="fil0" d="M3888.96 3635.24c-320.1,-6.64 -683.5,50.01 -683.5,363.4 0,190.08 126.68,280.1 276.74,280.1 210.04,0 343.42,-133.38 390.07,-270.05 10,-30.02 16.69,-63.4 16.69,-93.36l0 -280.09zm43.36 823.53l-23.32 -203.37 -10.05 0c-90.02,126.68 -263.4,240.02 -493.44,240.02 -326.74,0 -493.42,-230.07 -493.42,-463.4 0,-390.13 346.72,-603.53 970.18,-600.14l0 -33.31c0,-133.37 -36.67,-373.45 -366.71,-373.45 -150.05,0 -306.75,46.66 -420.09,119.99l-66.69 -193.38c133.37,-86.66 326.73,-143.31 530.09,-143.31 493.49,0 613.52,336.69 613.52,660.13l0 603.48c0,140.01 6.65,276.74 26.62,386.74l-266.69 0z"/>
   <path class="fil0" d="M4505.76 2845.06l316.76 906.84c53.35,146.72 96.71,280.08 130.04,413.47l9.98 0c36.72,-133.39 83.37,-266.75 136.72,-413.47l313.41 -906.84 306.7 0 -633.45 1613.68 -280.08 0 -613.47 -1613.68 313.39 0z"/>
   <path class="fil0" d="M5769.34 2845.08l293.38 0 0 1613.67 -293.38 0 0 -1613.67zm326.75 -453.47c3.34,100.05 -69.98,180.07 -186.67,180.07 -103.4,0 -176.73,-80.02 -176.73,-180.07 0,-103.29 76.67,-183.33 183.37,-183.33 110.05,0 180.03,80.04 180.03,183.33z"/>
   <path class="fil0" d="M7473.06 4398.78c-76.67,40.01 -246.71,93.3 -463.46,93.3 -486.74,0 -803.5,-330.03 -803.5,-823.51 0,-496.74 340.09,-856.85 866.84,-856.85 173.39,0 326.79,43.36 406.83,83.38l-66.7 226.68c-70.03,-40.01 -180.08,-76.67 -340.13,-76.67 -370.06,0 -570.11,273.38 -570.11,610.11 0,373.45 240.07,603.48 560.12,603.48 166.68,0 276.74,-43.36 360.11,-80.01l50 220.09z"/>
   <path class="fil0" d="M7879.81 3585.24l6.69 0c40.01,-56.65 96.66,-126.74 143.3,-183.39l473.46 -556.76 353.41 0 -623.45 663.46 710.18 950.2 -356.76 0 -556.84 -773.52 -149.99 166.7 0 606.82 -290.08 0 0 -2367.16 290.08 0 0 1493.65z"/>
   <path class="fil0" d="M9836.87 3635.24c-320.1,-6.64 -683.51,50.01 -683.51,363.4 0,190.08 126.68,280.1 276.74,280.1 210.05,0 343.44,-133.38 390.08,-270.05 9.99,-30.02 16.69,-63.4 16.69,-93.36l0 -280.09zm43.37 823.53l-23.34 -203.37 -10.04 0c-90.02,126.68 -263.4,240.02 -493.43,240.02 -326.75,0 -493.44,-230.07 -493.44,-463.4 0,-390.13 346.72,-603.53 970.18,-600.14l0 -33.31c0,-133.37 -36.66,-373.45 -366.7,-373.45 -150.06,0 -306.77,46.66 -420.11,119.99l-66.68 -193.38c133.38,-86.66 326.74,-143.31 530.11,-143.31 493.48,0 613.51,336.69 613.51,660.13l0 603.48c0,140.01 6.65,276.74 26.62,386.74l-266.68 0z"/>
   <path class="fil0" d="M10296.97 4285.42c0,-123.4 83.38,-210.06 200.07,-210.06 116.68,0 196.72,86.66 196.72,210.06 0,120.03 -76.69,209.99 -200.07,209.99 -116.69,0 -196.72,-89.96 -196.72,-209.99z"/>
   <path class="fil0" d="M10950.41 4158.71c86.68,56.63 240.08,116.69 386.74,116.69 213.4,0 313.41,-106.66 313.41,-240.09 0,-140.01 -83.32,-216.68 -300.02,-296.71 -290.13,-103.36 -426.8,-263.41 -426.8,-456.77 0,-260.06 210.06,-473.46 556.78,-473.46 163.39,0 306.76,46.71 396.77,100.06l-73.33 213.35c-63.4,-40.01 -180.02,-93.3 -330.09,-93.3 -173.38,0 -270.04,99.99 -270.04,220.04 0,133.37 96.66,193.3 306.7,273.33 280.1,106.75 423.46,246.78 423.46,486.84 0,283.39 -220.05,483.39 -603.49,483.39 -176.68,0 -340.07,-43.3 -453.42,-109.98l73.33 -223.39z"/>
   <path class="fil0" d="M12374.04 3585.24l6.71 0c40,-56.65 96.65,-126.74 143.31,-183.39l473.44 -556.76 353.43 0 -623.46 663.46 710.16 950.2 -356.75 0 -556.82 -773.52 -150.02 166.7 0 606.82 -290.07 0 0 -2367.16 290.07 0 0 1493.65z"/>
   <path class="fil0" d="M4814.69 4972.79c0,-64.1 -1.15,-119.21 -4.49,-169.82l86.61 0 3.35 106.87 4.49 0c24.76,-73.11 84.36,-119.22 150.72,-119.22 11.26,0 19.1,1.1 28.11,3.36l0 93.3c-10.1,-2.26 -20.21,-3.34 -33.7,-3.34 -69.76,0 -119.27,52.89 -132.73,127.11 -2.24,13.44 -4.49,29.2 -4.49,46.1l0 290.19 -97.87 0 0 -374.55z"/>
   <path class="fil0" d="M5440.16 5022.31c1.15,-63.01 -25.86,-160.87 -137.23,-160.87 -100.1,0 -143.96,92.21 -151.86,160.87l289.09 0zm-290.18 70.86c2.24,133.81 87.75,188.92 186.71,188.92 70.86,0 113.63,-12.35 150.72,-28.1l16.85 70.86c-34.85,15.76 -94.46,33.76 -181.07,33.76 -167.63,0 -267.68,-110.26 -267.68,-274.44 0,-164.22 96.71,-293.59 255.33,-293.59 177.67,0 224.93,156.37 224.93,256.44 0,20.24 -2.24,36 -3.35,46.15l-382.44 0z"/>
   <path class="fil0" d="M5868.87 5069.53c-107.96,-2.24 -230.57,16.91 -230.57,122.57 0,64.1 42.75,94.52 93.36,94.52 70.86,0 115.82,-45.01 131.56,-91.11 3.41,-10.16 5.65,-21.41 5.65,-31.46l0 -94.52zm14.61 277.85l-7.86 -68.62 -3.34 0c-30.4,42.71 -88.92,80.97 -166.52,80.97 -110.22,0 -166.42,-77.61 -166.42,-156.38 0,-131.56 116.96,-203.57 327.29,-202.41l0 -11.25c0,-44.97 -12.41,-125.98 -123.72,-125.98 -50.6,0 -103.51,15.7 -141.72,40.45l-22.5 -65.2c45.01,-29.25 110.22,-48.36 178.83,-48.36 166.46,0 206.97,113.56 206.97,222.74l0 203.58c0,47.19 2.25,93.35 9,130.46l-90.01 0z"/>
   <polygon class="fil0" points="6047.9,4548.77 6146.86,4548.77 6146.86,5347.38 6047.9,5347.38 "/>
   <path class="fil0" d="M6236.92 4803l98.97 0 0 544.38 -98.97 0 0 -544.38zm110.22 -152.97c1.1,33.7 -23.65,60.71 -63.01,60.71 -34.85,0 -59.61,-27.01 -59.61,-60.71 0,-34.9 25.86,-61.86 61.86,-61.86 37.11,0 60.76,26.96 60.76,61.86z"/>
   <path class="fil0" d="M6410.17 5246.11c29.25,19.15 81.01,39.41 130.46,39.41 71.95,0 105.76,-36.02 105.76,-81.02 0,-47.2 -28.16,-73.11 -101.27,-100.12 -97.86,-34.85 -143.96,-88.8 -143.96,-154.07 0,-87.71 70.85,-159.71 187.82,-159.71 55.17,0 103.53,15.75 133.87,33.7l-24.76 72c-21.34,-13.5 -60.69,-31.44 -111.35,-31.44 -58.47,0 -91.06,33.7 -91.06,74.2 0,45.01 32.59,65.27 103.46,92.21 94.46,36.01 142.81,83.27 142.81,164.22 0,95.61 -74.2,163.13 -203.57,163.13 -59.62,0 -114.72,-14.65 -152.97,-37.16l24.76 -75.35z"/>
   <path class="fil0" d="M6911.94 4646.64l0 156.36 141.73 0 0 75.37 -141.73 0 0 293.48c0,67.57 19.16,105.76 74.26,105.76 25.86,0 44.95,-3.34 57.37,-6.75l4.49 74.26c-19.15,7.86 -49.5,13.5 -87.76,13.5 -46.1,0 -83.21,-14.65 -106.81,-41.66 -28.16,-29.19 -38.26,-77.54 -38.26,-141.71l0 -296.88 -84.36 0 0 -75.37 84.36 0 0 -130.52 96.71 -25.84z"/>
   <path class="fil0" d="M7088.66 4803l98.96 0 0 544.38 -98.96 0 0 -544.38zm110.21 -152.97c1.11,33.7 -23.65,60.71 -63.01,60.71 -34.85,0 -59.6,-27.01 -59.6,-60.71 0,-34.9 25.85,-61.86 61.86,-61.86 37.1,0 60.75,26.96 60.75,61.86z"/>
   <path class="fil0" d="M7663.45 5327.09c-25.86,13.5 -83.27,31.5 -156.38,31.5 -164.16,0 -271.03,-111.36 -271.03,-277.78 0,-167.62 114.71,-289.09 292.44,-289.09 58.45,0 110.22,14.66 137.22,28.1l-22.51 76.45c-23.6,-13.5 -60.75,-25.79 -114.71,-25.79 -124.87,0 -192.32,92.15 -192.32,205.82 0,125.98 80.95,203.58 188.91,203.58 56.26,0 93.37,-14.65 121.47,-27.05l16.91 74.26z"/>
   <path class="fil0" d="M7800.83 5052.65l2.26 0c13.49,-19.15 32.59,-42.71 48.35,-61.86l159.71 -187.82 119.22 0 -210.33 223.78 239.58 320.59 -120.36 0 -187.82 -260.93 -50.61 56.25 0 204.68 -97.86 0 0 -798.61 97.86 0 0 503.92z"/>
   <path class="fil0" d="M8510.7 4567.9l-137.21 160.87 -70.85 0 98.95 -160.87 109.11 0zm-49.44 501.65c-108.03,-2.24 -230.64,16.86 -230.64,122.57 0,64.1 42.75,94.52 93.41,94.52 70.87,0 115.82,-45.06 131.58,-91.11 3.39,-10.16 5.65,-21.41 5.65,-31.51l0 -94.47zm14.59 277.79l-7.84 -68.61 -3.41 0c-30.4,42.69 -88.85,81.01 -166.47,81.01 -110.2,0 -166.46,-77.6 -166.46,-156.37 0,-131.57 117.01,-203.57 327.33,-202.42l0 -11.25c0,-45.01 -12.4,-125.97 -123.77,-125.97 -50.59,0 -103.46,15.69 -141.72,40.45l-22.43 -65.26c44.94,-29.26 110.2,-48.3 178.81,-48.3 166.47,0 206.93,113.56 206.93,222.68l0 203.57c0,47.25 2.24,93.37 8.99,130.47l-89.96 0z"/>
   <path class="fil0" d="M9257.77 5198.87c0,56.21 1.15,105.77 4.5,148.47l-87.77 0 -5.6 -88.87 -2.24 0c-25.86,43.93 -83.22,101.27 -179.92,101.27 -85.52,0 -187.88,-47.31 -187.88,-238.48l0 -318.29 98.97 0 0 301.38c0,103.53 31.49,173.29 121.51,173.29 66.36,0 112.46,-46.11 130.47,-90.02 5.59,-14.65 8.99,-32.59 8.99,-50.61l0 -334.04 98.97 0 0 395.9z"/>
   <path class="fil0" d="M9345.69 4950.32c0,-56.26 -1.15,-102.36 -4.49,-147.37l86.61 0 4.5 87.72 3.34 0c30.36,-51.7 81.02,-100.05 170.97,-100.05 74.22,0 130.48,44.94 154.13,109.05l2.25 0c16.85,-30.36 38.2,-53.95 60.71,-70.86 32.66,-24.7 68.6,-38.19 120.36,-38.19 71.96,0 178.83,47.2 178.83,236.17l0 320.54 -96.71 0 0 -308.2c0,-104.55 -38.26,-167.56 -118.12,-167.56 -56.21,0 -100.12,41.6 -116.97,89.96 -4.5,13.5 -7.84,31.5 -7.84,49.5l0 336.3 -96.77 0 0 -326.14c0,-86.61 -38.26,-149.62 -113.61,-149.62 -61.86,0 -106.87,49.5 -122.57,98.96 -5.65,14.66 -7.91,31.51 -7.91,48.41l0 328.39 -96.71 0 0 -397.01z"/>
   <path class="fil0" d="M10552.89 5022.31c1.15,-63.01 -25.86,-160.87 -137.22,-160.87 -100.11,0 -143.97,92.21 -151.87,160.87l289.09 0zm-290.2 70.86c2.26,133.81 87.77,188.92 186.74,188.92 70.85,0 113.61,-12.35 150.71,-28.1l16.85 70.86c-34.85,15.76 -94.45,33.76 -181.07,33.76 -167.62,0 -267.68,-110.26 -267.68,-274.44 0,-164.22 96.71,-293.59 255.33,-293.59 177.68,0 224.93,156.37 224.93,256.44 0,20.24 -2.24,36 -3.35,46.15l-382.46 0z"/>
   <polygon class="fil0" points="10694.78,4548.77 10793.74,4548.77 10793.74,5347.38 10694.78,5347.38 "/>
   <path class="fil0" d="M11220.1 4567.9l-137.21 160.87 -70.87 0 98.97 -160.87 109.11 0zm-49.44 501.65c-108.03,-2.24 -230.64,16.86 -230.64,122.57 0,64.1 42.75,94.52 93.41,94.52 70.87,0 115.82,-45.06 131.56,-91.11 3.41,-10.16 5.67,-21.41 5.67,-31.51l0 -94.47zm14.59 277.79l-7.84 -68.61 -3.41 0c-30.4,42.69 -88.87,81.01 -166.47,81.01 -110.22,0 -166.48,-77.6 -166.48,-156.37 0,-131.57 117.03,-203.57 327.35,-202.42l0 -11.25c0,-45.01 -12.4,-125.97 -123.77,-125.97 -50.61,0 -103.46,15.69 -141.72,40.45l-22.45 -65.26c44.96,-29.26 110.22,-48.3 178.83,-48.3 166.47,0 206.93,113.56 206.93,222.68l0 203.57c0,47.25 2.24,93.37 8.99,130.47l-89.96 0z"/>
   <path class="fil0" d="M11630.84 4646.64l0 156.36 141.73 0 0 75.37 -141.73 0 0 293.48c0,67.57 19.16,105.76 74.26,105.76 25.86,0 44.95,-3.34 57.37,-6.75l4.5 74.26c-19.16,7.86 -49.51,13.5 -87.77,13.5 -46.1,0 -83.21,-14.65 -106.81,-41.66 -28.16,-29.19 -38.26,-77.54 -38.26,-141.71l0 -296.88 -84.36 0 0 -75.37 84.36 0 0 -130.52 96.71 -25.84z"/>
   <path class="fil0" d="M11807.54 4972.79c0,-64.1 -1.15,-119.21 -4.49,-169.82l86.61 0 3.34 106.87 4.5 0c24.75,-73.11 84.36,-119.22 150.72,-119.22 11.24,0 19.15,1.1 28.09,3.36l0 93.3c-10.09,-2.26 -20.19,-3.34 -33.7,-3.34 -69.74,0 -119.2,52.89 -132.71,127.11 -2.24,13.44 -4.5,29.2 -4.5,46.1l0 290.19 -97.86 0 0 -374.55z"/>
   <path class="fil0" d="M12429.65 4567.9l-137.21 160.87 -70.87 0 98.97 -160.87 109.11 0zm-49.45 501.65c-108.02,-2.24 -230.64,16.86 -230.64,122.57 0,64.1 42.76,94.52 93.42,94.52 70.87,0 115.81,-45.06 131.56,-91.11 3.41,-10.16 5.66,-21.41 5.66,-31.51l0 -94.47zm14.6 277.79l-7.85 -68.61 -3.4 0c-30.42,42.69 -88.87,81.01 -166.48,81.01 -110.21,0 -166.47,-77.6 -166.47,-156.37 0,-131.57 117.03,-203.57 327.35,-202.42l0 -11.25c0,-45.01 -12.4,-125.97 -123.77,-125.97 -50.61,0 -103.46,15.69 -141.72,40.45l-22.45 -65.26c44.96,-29.26 110.21,-48.3 178.82,-48.3 166.48,0 206.93,113.56 206.93,222.68l0 203.57c0,47.25 2.24,93.37 9,130.47l-89.96 0z"/>
   <path class="fil0" d="M12588.42 4802.98l106.86 305.88c17.95,49.57 32.61,94.52 43.86,139.47l3.34 0c12.4,-44.95 28.16,-89.9 46.1,-139.47l105.77 -305.88 103.46 0 -213.73 544.36 -94.45 0 -206.93 -544.36 105.72 0z"/>
   <path class="fil0" d="M13297.17 5069.53c-108,-2.24 -230.57,16.91 -230.57,122.57 0,64.1 42.7,94.52 93.36,94.52 70.86,0 115.8,-45.01 131.56,-91.11 3.41,-10.16 5.65,-21.41 5.65,-31.46l0 -94.52zm14.66 277.85l-7.91 -68.62 -3.34 0c-30.4,42.71 -88.92,80.97 -166.52,80.97 -110.22,0 -166.43,-77.61 -166.43,-156.38 0,-131.56 116.97,-203.57 327.3,-202.41l0 -11.25c0,-44.97 -12.41,-125.98 -123.72,-125.98 -50.66,0 -103.51,15.7 -141.72,40.45l-22.5 -65.2c44.95,-29.25 110.22,-48.36 178.81,-48.36 166.48,0 206.99,113.56 206.99,222.74l0 203.58c0,47.19 2.25,93.35 8.95,130.46l-89.91 0z"/>
   <path class="fil0" d="M10548.3 3954.05c5.38,-37.7 11.03,-75.3 16.7,-112.95 15.41,-102.08 31.39,-204.07 47.85,-306.05 24.21,-150.28 49.45,-300.39 75.63,-450.34 31.84,-182.22 65.16,-364.23 100.17,-545.86 38.21,-197.92 78.38,-395.51 121.35,-592.45 43.1,-197.48 88.98,-394.4 139.21,-590.19 52.09,-202.76 110.91,-403.42 174.53,-602.82 0.44,-1.49 0.89,-3.03 0.44,-4.51 -0.66,-2.24 -3.24,-3.28 -5.54,-3.78 -9.77,-2.19 -20.15,0.61 -28.82,5.65 -47.53,27.4 -64.55,89.52 -85.61,136.23 -34.64,76.9 -62.3,156.98 -88.22,237.22 -43.35,134.36 -80.56,270.7 -115.52,407.48 -52.81,206.38 -100.01,414.29 -144.74,622.58 -9.88,46.1 -19.65,92.27 -29.32,138.38 -5.05,24.15 -10.05,48.29 -14.98,72.44 -4.45,21.52 -15.04,48.57 -14.48,70.42 -1.93,-73.44 -4.34,-146.87 -6.86,-220.31 -5.5,-162.09 -11.81,-324.11 -19.65,-486.14 -7.91,-163.55 -14.23,-327.51 -31.25,-490.46 -14.87,-142.71 -28.7,-256.49 -59.32,-243.81 -8.01,3.35 -11.42,36.01 -12.57,45.78 -15.98,136.66 -20.97,263.23 -19.15,400.18 2.02,168.56 4.1,337.06 5.43,505.55 1.43,189.69 1.91,379.44 0.28,569.13 -1.54,179.92 -4.84,359.89 -12.9,539.65 -6.27,139.25 -14.01,279.26 -34.15,417.35 -0.66,4.28 -1.26,8.56 -1.98,12.79 -0.43,3.13 0.17,8.23 -1.76,10.88 -4.6,6.3 -4.65,0.33 -8.49,-4.12 -13.62,-15.75 -15.92,-55.55 -19.99,-74.65 -14.16,-66.52 -25.3,-133.7 -36.16,-200.83 -20.7,-127.22 -39.19,-254.83 -57.15,-382.51 -29.03,-206.43 -56.26,-413.08 -82.82,-619.83 -13.72,-107.09 -28.48,-193.97 -55.1,-298.97 -3.57,-14.11 -18.11,-57.37 -33.21,-56.59 -18.28,0.93 -18.39,30.35 -18.12,41.21 7.68,275.05 18.71,373.67 24.21,449.36 8.23,113.46 11.63,218.18 20.91,331.52 0.06,0.5 -0.05,1.37 0.11,1.81 0,0 -531.68,-1159.48 -576.31,-1118.31 -44.57,41.17 514.57,1143.51 782.14,2389.87l105.21 0z"/>
  </g>
 </g>
</svg>
