<?xml version="1.0" encoding="UTF-8"?>
<!DOCTYPE svg PUBLIC "-//W3C//DTD SVG 1.1//EN" "http://www.w3.org/Graphics/SVG/1.1/DTD/svg11.dtd">
<!-- Creator: CorelDRAW 2020 (64-Bit) -->
<svg xmlns="http://www.w3.org/2000/svg" xml:space="preserve" width="162.56mm" height="423.333mm" version="1.1" style="shape-rendering:geometricPrecision; text-rendering:geometricPrecision; image-rendering:optimizeQuality; fill-rule:evenodd; clip-rule:evenodd"
viewBox="0 0 16256 42333.32"
 xmlns:xlink="http://www.w3.org/1999/xlink"
 xmlns:xodm="http://www.corel.com/coreldraw/odm/2003">
 <defs>
  <style type="text/css">
   <![CDATA[
    .fil0 {fill:#587F37}
   ]]>
  </style>
 </defs>
 <g id="Layer_x0020_1">
  <metadata id="CorelCorpID_0Corel-Layer"/>
  <g id="_1456063226128">
   <path class="fil0" d="M5231.66 20300.11c-4.38,-5.08 -22.29,-37.34 -38.32,-57.15 -36.09,-44.58 -56.69,-62.46 -104.04,-95.58 -18.39,-12.86 -46.11,-26.73 -66.41,-37.14 -81.37,-41.7 -246,-87.6 -346.44,-91.26 9.26,5.42 25,8.9 37.03,13.06 53.32,18.43 122.42,49.28 165.48,76.71 20.62,13.13 40.26,24.4 56.5,37.78 76.59,63.12 114.55,112.91 118.15,230.43l609.32 -0.07c4.27,-130.16 33.75,-246.45 138.92,-345.11 34.93,-32.75 51.89,-45.61 95.22,-70.69 3.46,-2 3.68,-2.62 5.86,-4.04 -60.1,12.23 -131.21,49.23 -174.47,76.98l-82.38 65.11c-105.48,97.87 -135.31,210.83 -149.47,224.68 -36.19,-89.43 -77.91,-191.03 -147.88,-268.16 -12.07,-13.31 -22,-25.33 -34.39,-37.6 -5.73,-5.67 -12.37,-12.47 -18.27,-17.97l-49.27 -43.2c-18.07,-13.16 -37.29,-25.64 -53.95,-39.68 -11.79,-9.94 -81.08,-49.72 -95.46,-57.14 -50.9,-26.3 -165.74,-78.15 -227.39,-85.77 5.56,4.27 10.72,6.32 17.61,10.31 7.23,4.18 11.08,6.46 18.6,11.1 34.01,20.96 55.15,37.7 86.66,60.23l46.08 40.57c75.37,72.5 123.87,137.48 160.85,229 15.01,37.14 37.19,134.78 31.86,174.6z"/>
   <path class="fil0" d="M5496.68 20227.96c13.15,-136.27 13.13,-197.74 69.26,-331.92 37.63,-89.95 93.32,-172.53 170.77,-244.85l8.5 -8.53c-9.23,3.54 -16.75,7.9 -23.61,12.22 -49.04,30.79 -53.99,36.14 -98.84,72.9 -91.06,74.64 -180.09,197.57 -227.84,297.23 -12.96,27.02 -15.36,19.49 3.62,41.89 20.73,24.45 35.96,49.89 53.06,76.74 8.33,13.07 15.82,27.04 22.94,41.03 4.97,9.76 16.71,36.71 22.14,43.29z"/>
  </g>
 </g>
</svg>
