<?xml version="1.0" encoding="UTF-8"?>
<!DOCTYPE svg PUBLIC "-//W3C//DTD SVG 1.1//EN" "http://www.w3.org/Graphics/SVG/1.1/DTD/svg11.dtd">
<!-- Creator: CorelDRAW 2020 (64-Bit) -->
<svg xmlns="http://www.w3.org/2000/svg" xml:space="preserve" width="162.56mm" height="423.333mm" version="1.1" style="shape-rendering:geometricPrecision; text-rendering:geometricPrecision; image-rendering:optimizeQuality; fill-rule:evenodd; clip-rule:evenodd"
viewBox="0 0 16256 42333.32"
 xmlns:xlink="http://www.w3.org/1999/xlink"
 xmlns:xodm="http://www.corel.com/coreldraw/odm/2003">
 <defs>
  <style type="text/css">
   <![CDATA[
    .fil0 {fill:#587F37}
   ]]>
  </style>
 </defs>
 <g id="Layer_x0020_1">
  <metadata id="CorelCorpID_0Corel-Layer"/>
  <g id="_1456425602656">
   <path class="fil0" d="M8034.25 20272.63c-4.38,-6.88 -22.29,-50.68 -38.32,-77.57 -36.09,-60.51 -56.69,-84.78 -104.04,-129.74 -18.39,-17.46 -46.11,-36.29 -66.41,-50.41 -81.37,-56.61 -246,-118.92 -346.44,-123.89 9.26,7.35 25,12.09 37.03,17.73 53.32,25.01 122.42,66.9 165.48,104.13 20.62,17.83 40.26,33.12 56.5,51.29 76.59,85.68 114.55,153.26 118.15,312.79l609.32 -0.1c4.27,-176.69 33.75,-334.53 138.92,-468.46 34.93,-44.46 51.89,-61.92 95.22,-95.96 3.46,-2.72 3.68,-3.56 5.86,-5.48 -60.1,16.6 -131.21,66.82 -174.47,104.49l-82.38 88.38c-105.48,132.86 -135.31,286.19 -149.47,305 -36.19,-121.4 -77.91,-259.31 -147.88,-364.02 -12.07,-18.06 -22,-34.38 -34.39,-51.03 -5.73,-7.7 -12.37,-16.93 -18.27,-24.4l-49.27 -58.64c-18.07,-17.87 -37.29,-34.81 -53.95,-53.86 -11.79,-13.49 -81.08,-67.5 -95.46,-77.57 -50.9,-35.69 -165.74,-106.08 -227.39,-116.43 5.56,5.8 10.72,8.59 17.61,14 7.23,5.67 11.08,8.77 18.6,15.06 34.01,28.46 55.15,51.19 86.66,81.77l46.08 55.06c75.37,98.42 123.87,186.63 160.85,310.86 15.01,50.42 37.19,182.96 31.86,237z"/>
   <path class="fil0" d="M8299.27 20174.7c13.15,-184.98 13.13,-268.42 69.26,-450.56 37.63,-122.1 93.32,-234.2 170.77,-332.38l8.5 -11.57c-9.23,4.8 -16.75,10.73 -23.61,16.58 -49.04,41.8 -53.99,49.06 -98.84,98.97 -91.06,101.32 -180.09,268.19 -227.84,403.46 -12.96,36.69 -15.36,26.46 3.62,56.87 20.73,33.19 35.96,67.73 53.06,104.17 8.33,17.74 15.82,36.71 22.94,55.7 4.97,13.25 16.71,49.83 22.14,58.76z"/>
  </g>
 </g>
</svg>
