<?xml version="1.0" encoding="UTF-8"?>
<!DOCTYPE svg PUBLIC "-//W3C//DTD SVG 1.1//EN" "http://www.w3.org/Graphics/SVG/1.1/DTD/svg11.dtd">
<!-- Creator: CorelDRAW 2020 (64-Bit) -->
<svg xmlns="http://www.w3.org/2000/svg" xml:space="preserve" width="162.56mm" height="423.333mm" version="1.1" style="shape-rendering:geometricPrecision; text-rendering:geometricPrecision; image-rendering:optimizeQuality; fill-rule:evenodd; clip-rule:evenodd"
viewBox="0 0 16256 42333.32"
 xmlns:xlink="http://www.w3.org/1999/xlink"
 xmlns:xodm="http://www.corel.com/coreldraw/odm/2003">
 <defs>
  <style type="text/css">
   <![CDATA[
    .fil0 {fill:#587F37}
   ]]>
  </style>
 </defs>
 <g id="Layer_x0020_1">
  <metadata id="CorelCorpID_0Corel-Layer"/>
  <g id="_1492664392848">
   <path class="fil0" d="M10836.84 20234.53c-4.38,-9.4 -22.29,-69.2 -38.32,-105.91 -36.09,-82.6 -56.69,-115.74 -104.04,-177.12 -18.39,-23.84 -46.11,-49.54 -66.41,-68.83 -81.37,-77.28 -246,-162.36 -346.44,-169.13 9.26,10.04 25,16.5 37.03,24.2 53.32,34.15 122.42,91.33 165.48,142.16 20.62,24.34 40.26,45.23 56.5,70.03 76.59,116.97 114.55,209.23 118.15,427.03l609.32 -0.13c4.27,-241.22 33.75,-456.72 138.92,-639.57 34.93,-60.7 51.89,-84.53 95.22,-131.01 3.46,-3.71 3.68,-4.86 5.86,-7.47 -60.1,22.65 -131.21,91.22 -174.47,142.64l-82.38 120.67c-105.48,181.38 -135.31,390.72 -149.47,416.4 -36.19,-165.75 -77.91,-354.03 -147.88,-496.98 -12.07,-24.66 -22,-46.93 -34.39,-69.67 -5.73,-10.52 -12.37,-23.11 -18.27,-33.31l-49.27 -80.06c-18.07,-24.39 -37.29,-47.52 -53.95,-73.53 -11.79,-18.42 -81.08,-92.15 -95.46,-105.9 -50.9,-48.73 -165.74,-144.83 -227.39,-158.95 5.56,7.92 10.72,11.72 17.61,19.11 7.23,7.75 11.08,11.97 18.6,20.56 34.01,38.85 55.15,69.88 86.66,111.63l46.08 75.18c75.37,134.36 123.87,254.79 160.85,424.39 15.01,68.83 37.19,249.79 31.86,323.57z"/>
   <path class="fil0" d="M11101.86 20100.83c13.15,-252.55 13.13,-366.46 69.26,-615.13 37.63,-166.7 93.32,-319.73 170.77,-453.77l8.5 -15.81c-9.23,6.57 -16.75,14.65 -23.61,22.65 -49.04,57.07 -53.99,66.98 -98.84,135.11 -91.06,138.32 -180.09,366.14 -227.84,550.83 -12.96,50.09 -15.36,36.12 3.62,77.63 20.73,45.32 35.96,92.47 53.06,142.22 8.33,24.22 15.82,50.12 22.94,76.04 4.97,18.09 16.71,68.03 22.14,80.23z"/>
  </g>
 </g>
</svg>
