<?xml version="1.0" encoding="UTF-8"?>
<!DOCTYPE svg PUBLIC "-//W3C//DTD SVG 1.1//EN" "http://www.w3.org/Graphics/SVG/1.1/DTD/svg11.dtd">
<!-- Creator: CorelDRAW 2020 (64-Bit) -->
<svg xmlns="http://www.w3.org/2000/svg" xml:space="preserve" width="162.56mm" height="423.333mm" version="1.1" style="shape-rendering:geometricPrecision; text-rendering:geometricPrecision; image-rendering:optimizeQuality; fill-rule:evenodd; clip-rule:evenodd"
viewBox="0 0 16256 42333.32"
 xmlns:xlink="http://www.w3.org/1999/xlink"
 xmlns:xodm="http://www.corel.com/coreldraw/odm/2003">
 <defs>
  <style type="text/css">
   <![CDATA[
    .fil0 {fill:white;fill-rule:nonzero}
   ]]>
  </style>
 </defs>
 <g id="Layer_x0020_1">
  <metadata id="CorelCorpID_0Corel-Layer"/>
  <g id="_1456428921504">
   <path class="fil0" d="M1672.04 20396.02l0 532.7 482.91 0 0 256.86 -482.91 0 0 1000.29c0,229.98 65.17,360.27 252.95,360.27 88.13,0 153.31,-11.48 195.46,-23.03l15.33 253.01c-65.17,26.74 -168.66,45.93 -298.95,45.93 -157.1,0 -283.6,-49.79 -364.1,-141.77 -95.84,-99.69 -130.29,-264.43 -130.29,-482.93l0 -1011.77 -287.46 0 0 -256.86 287.46 0 0 -444.56 329.6 -88.14z"/>
   <path class="fil0" d="M2273.74 21507.49c0,-218.48 -3.84,-406.25 -15.32,-578.75l295.08 0 11.55 364.12 15.26 0c84.36,-249.1 287.52,-406.27 513.65,-406.27 38.29,0 65.12,3.86 95.78,11.48l0 318.12c-34.52,-7.62 -69.02,-11.49 -114.97,-11.49 -237.67,0 -406.25,180.14 -452.25,433.09 -7.69,46 -15.33,99.69 -15.33,157.17l0 988.8 -333.45 0 0 -1276.27z"/>
   <path class="fil0" d="M4224.57 21837.08c-367.96,-7.64 -785.7,57.48 -785.7,417.73 0,218.5 145.62,321.99 318.12,321.99 241.45,0 394.77,-153.33 448.39,-310.43 11.5,-34.52 19.19,-72.88 19.19,-107.33l0 -321.96zm49.85 946.66l-26.81 -233.77 -11.56 0c-103.48,145.62 -302.79,275.91 -567.21,275.91 -375.6,0 -567.21,-264.48 -567.21,-532.7 0,-448.47 398.57,-693.77 1115.25,-689.88l0 -38.29c0,-153.31 -42.15,-429.29 -421.54,-429.29 -172.49,0 -352.62,53.64 -482.91,137.93l-76.66 -222.29c153.31,-99.62 375.58,-164.74 609.36,-164.74 567.27,0 705.25,387.03 705.25,758.84l0 693.72c0,160.94 7.64,318.12 30.6,444.56l-306.56 0z"/>
   <path class="fil0" d="M4933.6 20928.74l364.12 1042.44c61.33,168.65 111.17,321.96 149.48,475.29l11.48 0c42.21,-153.33 95.83,-306.64 157.16,-475.29l360.27 -1042.44 352.57 0 -728.17 1854.97 -321.96 0 -705.2 -1854.97 360.25 0z"/>
   <path class="fil0" d="M6386.12 20928.76l337.24 0 0 1854.96 -337.24 0 0 -1854.96zm375.6 -521.27c3.85,115.01 -80.44,206.99 -214.58,206.99 -118.86,0 -203.16,-91.98 -203.16,-206.99 0,-118.74 88.14,-210.74 210.8,-210.74 126.5,0 206.94,92 206.94,210.74z"/>
   <path class="fil0" d="M8344.59 22714.78c-88.14,46 -283.6,107.25 -532.76,107.25 -559.53,0 -923.64,-379.37 -923.64,-946.64 0,-571.01 390.94,-984.98 996.45,-984.98 199.31,0 375.66,49.85 467.66,95.85l-76.68 260.58c-80.5,-46 -207,-88.14 -390.98,-88.14 -425.39,0 -655.35,314.26 -655.35,701.34 0,429.29 275.96,693.72 643.87,693.72 191.6,0 318.12,-49.84 413.95,-91.98l57.48 253z"/>
   <path class="fil0" d="M8812.15 21779.6l7.69 0c46,-65.12 111.12,-145.69 164.74,-210.81l544.26 -640.01 406.25 0 -716.68 762.66 816.37 1092.28 -410.1 0 -640.1 -889.18 -172.43 191.62 0 697.56 -333.44 0 0 -2721.11 333.44 0 0 1716.99z"/>
   <path class="fil0" d="M11061.86 21837.08c-367.97,-7.64 -785.72,57.48 -785.72,417.73 0,218.5 145.62,321.99 318.12,321.99 241.46,0 394.79,-153.33 448.41,-310.43 11.48,-34.52 19.19,-72.88 19.19,-107.33l0 -321.96zm49.84 946.66l-26.83 -233.77 -11.53 0c-103.48,145.62 -302.79,275.91 -567.22,275.91 -375.6,0 -567.22,-264.48 -567.22,-532.7 0,-448.47 398.56,-693.77 1115.25,-689.88l0 -38.29c0,-153.31 -42.14,-429.29 -421.53,-429.29 -172.5,0 -352.64,53.64 -482.93,137.93l-76.65 -222.29c153.32,-99.62 375.6,-164.74 609.37,-164.74 567.27,0 705.26,387.03 705.26,758.84l0 693.72c0,160.94 7.63,318.12 30.6,444.56l-306.57 0z"/>
   <path class="fil0" d="M11590.75 22584.47c0,-141.85 95.84,-241.46 229.98,-241.46 134.14,0 226.14,99.61 226.14,241.46 0,137.98 -88.16,241.39 -229.99,241.39 -134.13,0 -226.13,-103.41 -226.13,-241.39z"/>
   <path class="fil0" d="M12341.9 22438.81c99.63,65.11 275.98,134.14 444.56,134.14 245.31,0 360.27,-122.6 360.27,-275.98 0,-160.95 -95.77,-249.08 -344.87,-341.08 -333.52,-118.81 -490.62,-302.79 -490.62,-525.07 0,-298.94 241.46,-544.25 640.03,-544.25 187.83,0 352.64,53.69 456.1,115.02l-84.29 245.25c-72.88,-46 -206.95,-107.25 -379.45,-107.25 -199.31,0 -310.43,114.94 -310.43,252.94 0,153.31 111.12,222.2 352.57,314.2 321.98,122.71 486.77,283.67 486.77,559.64 0,325.75 -252.94,555.66 -693.72,555.66 -203.1,0 -390.92,-49.77 -521.22,-126.42l84.3 -256.8z"/>
   <path class="fil0" d="M13978.4 21779.6l7.71 0c45.98,-65.12 111.1,-145.69 164.73,-210.81l544.24 -640.01 406.27 0 -716.68 762.66 816.36 1092.28 -410.1 0 -640.09 -889.18 -172.44 191.62 0 697.56 -333.45 0 0 -2721.11 333.45 0 0 1716.99z"/>
   <path class="fil0" d="M5288.72 23374.62c0,-73.68 -1.32,-137.03 -5.17,-195.21l99.57 0 3.84 122.85 5.17 0c28.46,-84.04 96.98,-137.05 173.25,-137.05 12.95,0 21.97,1.27 32.32,3.86l0 107.26c-11.6,-2.6 -23.23,-3.85 -38.74,-3.85 -80.19,0 -137.1,60.81 -152.57,146.12 -2.58,15.45 -5.17,33.57 -5.17,53l0 333.58 -112.5 0 0 -430.56z"/>
   <path class="fil0" d="M6007.71 23431.55c1.33,-72.43 -29.72,-184.93 -157.74,-184.93 -115.07,0 -165.49,106 -174.58,184.93l332.32 0zm-333.57 81.45c2.58,153.83 100.87,217.17 214.64,217.17 81.45,0 130.61,-14.2 173.25,-32.3l19.37 81.45c-40.06,18.12 -108.58,38.81 -208.15,38.81 -192.69,0 -307.7,-126.75 -307.7,-315.47 0,-188.77 111.17,-337.49 293.5,-337.49 204.25,0 258.57,179.75 258.57,294.78 0,23.27 -2.58,41.39 -3.85,53.05l-439.63 0z"/>
   <path class="fil0" d="M6500.53 23485.83c-124.1,-2.57 -265.05,19.44 -265.05,140.9 0,73.68 49.14,108.65 107.32,108.65 81.45,0 133.14,-51.74 151.24,-104.73 3.92,-11.68 6.49,-24.61 6.49,-36.17l0 -108.65zm16.8 319.39l-9.04 -78.87 -3.84 0c-34.95,49.09 -102.21,93.07 -191.42,93.07 -126.7,0 -191.3,-89.21 -191.3,-179.76 0,-151.24 134.44,-234.01 376.23,-232.68l0 -12.93c0,-51.69 -14.28,-144.82 -142.22,-144.82 -58.17,0 -118.99,18.05 -162.92,46.5l-25.86 -74.95c51.74,-33.63 126.7,-55.59 205.57,-55.59 191.35,0 237.92,130.54 237.92,256.04l0 234.02c0,54.25 2.58,107.31 10.34,149.97l-103.46 0z"/>
   <polygon class="fil0" points="6706.33,22887.21 6820.08,22887.21 6820.08,23805.22 6706.33,23805.22 "/>
   <path class="fil0" d="M6923.62 23179.45l113.76 0 0 625.77 -113.76 0 0 -625.77zm126.69 -175.85c1.27,38.74 -27.18,69.79 -72.43,69.79 -40.06,0 -68.52,-31.05 -68.52,-69.79 0,-40.11 29.73,-71.11 71.11,-71.11 42.66,0 69.84,31 69.84,71.11z"/>
   <path class="fil0" d="M7122.76 23688.81c33.63,22.01 93.13,45.3 149.97,45.3 82.72,0 121.58,-41.4 121.58,-93.13 0,-54.26 -32.37,-84.04 -116.41,-115.09 -112.5,-40.06 -165.49,-102.08 -165.49,-177.11 0,-100.82 81.45,-183.59 215.91,-183.59 63.42,0 119,18.1 153.88,38.74l-28.46 82.77c-24.54,-15.52 -69.77,-36.14 -128,-36.14 -67.21,0 -104.68,38.73 -104.68,85.29 0,51.74 37.47,75.03 118.93,106 108.58,41.39 164.17,95.72 164.17,188.78 0,109.9 -85.29,187.52 -234.01,187.52 -68.53,0 -131.88,-16.85 -175.84,-42.73l28.45 -86.61z"/>
   <path class="fil0" d="M7699.57 22999.7l0 179.75 162.91 0 0 86.63 -162.91 0 0 337.36c0,77.68 22.02,121.58 85.36,121.58 29.73,0 51.67,-3.84 65.95,-7.76l5.16 85.37c-22.01,9.03 -56.91,15.52 -100.88,15.52 -53,0 -95.65,-16.85 -122.78,-47.9 -32.38,-33.55 -43.98,-89.13 -43.98,-162.89l0 -341.28 -96.97 0 0 -86.63 96.97 0 0 -150.04 111.17 -29.71z"/>
   <path class="fil0" d="M7902.71 23179.45l113.76 0 0 625.77 -113.76 0 0 -625.77zm126.69 -175.85c1.27,38.74 -27.18,69.79 -72.43,69.79 -40.06,0 -68.52,-31.05 -68.52,-69.79 0,-40.11 29.73,-71.11 71.11,-71.11 42.66,0 69.84,31 69.84,71.11z"/>
   <path class="fil0" d="M8563.45 23781.9c-29.73,15.52 -95.72,36.21 -179.77,36.21 -188.7,0 -311.55,-128.02 -311.55,-319.31 0,-192.69 131.86,-332.32 336.16,-332.32 67.2,0 126.7,16.85 157.75,32.3l-25.88 87.89c-27.13,-15.53 -69.84,-29.66 -131.87,-29.66 -143.54,0 -221.07,105.93 -221.07,236.6 0,144.82 93.05,234.03 217.16,234.03 64.67,0 107.32,-16.85 139.62,-31.11l19.45 85.37z"/>
   <path class="fil0" d="M8721.37 23466.43l2.59 0c15.51,-22.02 37.47,-49.1 55.59,-71.11l183.59 -215.91 137.05 0 -241.79 257.24 275.41 368.53 -138.36 0 -215.9 -299.94 -58.18 64.65 0 235.29 -112.5 0 0 -918.03 112.5 0 0 579.28z"/>
   <path class="fil0" d="M9537.38 22909.19l-157.72 184.93 -81.45 0 113.75 -184.93 125.42 0zm-56.83 576.66c-124.18,-2.58 -265.13,19.39 -265.13,140.9 0,73.68 49.15,108.65 107.38,108.65 81.47,0 133.14,-51.8 151.25,-104.74 3.9,-11.68 6.5,-24.61 6.5,-36.21l0 -108.6zm16.77 319.33l-9.01 -78.87 -3.92 0c-34.95,49.08 -102.14,93.13 -191.37,93.13 -126.68,0 -191.35,-89.21 -191.35,-179.76 0,-151.24 134.52,-234.01 376.28,-232.69l0 -12.93c0,-51.74 -14.25,-144.81 -142.27,-144.81 -58.16,0 -118.94,18.05 -162.91,46.5l-25.79 -75.01c51.66,-33.64 126.67,-55.53 205.55,-55.53 191.36,0 237.87,130.54 237.87,255.99l0 234c0,54.32 2.57,107.33 10.33,149.98l-103.41 0z"/>
   <path class="fil0" d="M10396.16 23634.51c0,64.62 1.33,121.58 5.17,170.67l-100.89 0 -6.44 -102.15 -2.57 0c-29.73,50.48 -95.67,116.41 -206.82,116.41 -98.31,0 -215.98,-54.39 -215.98,-274.14l0 -365.89 113.77 0 0 346.45c0,119 36.2,199.2 139.68,199.2 76.28,0 129.27,-53.01 149.98,-103.48 6.42,-16.85 10.34,-37.47 10.34,-58.18l0 -383.99 113.76 0 0 455.1z"/>
   <path class="fil0" d="M10497.23 23348.8c0,-64.67 -1.32,-117.67 -5.17,-169.41l99.57 0 5.17 100.84 3.84 0c34.89,-59.43 93.13,-115.02 196.54,-115.02 85.31,0 149.98,51.67 177.17,125.35l2.59 0c19.37,-34.89 43.91,-62 69.79,-81.44 37.54,-28.4 78.85,-43.91 138.35,-43.91 82.72,0 205.57,54.26 205.57,271.49l0 368.47 -111.17 0 0 -354.29c0,-120.18 -43.98,-192.62 -135.78,-192.62 -64.62,0 -115.09,47.83 -134.46,103.41 -5.17,15.53 -9.01,36.22 -9.01,56.91l0 386.59 -111.25 0 0 -374.91c0,-99.56 -43.98,-172 -130.59,-172 -71.11,0 -122.86,56.91 -140.9,113.77 -6.49,16.85 -9.09,36.22 -9.09,55.64l0 377.5 -111.17 0 0 -456.37z"/>
   <path class="fil0" d="M11884.94 23431.55c1.32,-72.43 -29.73,-184.93 -157.75,-184.93 -115.07,0 -165.49,106 -174.57,184.93l332.32 0zm-333.59 81.45c2.59,153.83 100.89,217.17 214.65,217.17 81.45,0 130.6,-14.2 173.25,-32.3l19.37 81.45c-40.06,18.12 -108.58,38.81 -208.14,38.81 -192.69,0 -307.71,-126.75 -307.71,-315.47 0,-188.77 111.17,-337.49 293.51,-337.49 204.24,0 258.56,179.75 258.56,294.78 0,23.27 -2.58,41.39 -3.85,53.05l-439.64 0z"/>
   <polygon class="fil0" points="12048.05,22887.21 12161.79,22887.21 12161.79,23805.22 12048.05,23805.22 "/>
   <path class="fil0" d="M12651.91 22909.19l-157.72 184.93 -81.47 0 113.77 -184.93 125.42 0zm-56.84 576.66c-124.17,-2.58 -265.12,19.39 -265.12,140.9 0,73.68 49.15,108.65 107.38,108.65 81.46,0 133.13,-51.8 151.23,-104.74 3.92,-11.68 6.51,-24.61 6.51,-36.21l0 -108.6zm16.78 319.33l-9.01 -78.87 -3.92 0c-34.95,49.08 -102.16,93.13 -191.37,93.13 -126.7,0 -191.37,-89.21 -191.37,-179.76 0,-151.24 134.53,-234.01 376.3,-232.69l0 -12.93c0,-51.74 -14.25,-144.81 -142.27,-144.81 -58.18,0 -118.94,18.05 -162.92,46.5l-25.81 -75.01c51.69,-33.64 126.7,-55.53 205.57,-55.53 191.37,0 237.87,130.54 237.87,255.99l0 234c0,54.32 2.58,107.33 10.34,149.98l-103.41 0z"/>
   <path class="fil0" d="M13124.07 22999.7l0 179.75 162.92 0 0 86.63 -162.92 0 0 337.36c0,77.68 22.02,121.58 85.37,121.58 29.72,0 51.67,-3.84 65.94,-7.76l5.17 85.37c-22.02,9.03 -56.91,15.52 -100.89,15.52 -52.99,0 -95.65,-16.85 -122.78,-47.9 -32.37,-33.55 -43.98,-89.13 -43.98,-162.89l0 -341.28 -96.97 0 0 -86.63 96.97 0 0 -150.04 111.17 -29.71z"/>
   <path class="fil0" d="M13327.19 23374.62c0,-73.68 -1.32,-137.03 -5.17,-195.21l99.57 0 3.84 122.85 5.17 0c28.46,-84.04 96.97,-137.05 173.25,-137.05 12.93,0 22.02,1.27 32.3,3.86l0 107.26c-11.6,-2.6 -23.21,-3.85 -38.74,-3.85 -80.17,0 -137.03,60.81 -152.55,146.12 -2.58,15.45 -5.17,33.57 -5.17,53l0 333.58 -112.5 0 0 -430.56z"/>
   <path class="fil0" d="M14042.32 22909.19l-157.73 184.93 -81.46 0 113.76 -184.93 125.43 0zm-56.84 576.66c-124.17,-2.58 -265.13,19.39 -265.13,140.9 0,73.68 49.15,108.65 107.39,108.65 81.46,0 133.13,-51.8 151.23,-104.74 3.92,-11.68 6.51,-24.61 6.51,-36.21l0 -108.6zm16.78 319.33l-9.02 -78.87 -3.91 0c-34.97,49.08 -102.16,93.13 -191.37,93.13 -126.7,0 -191.37,-89.21 -191.37,-179.76 0,-151.24 134.53,-234.01 376.3,-232.69l0 -12.93c0,-51.74 -14.26,-144.81 -142.28,-144.81 -58.18,0 -118.93,18.05 -162.91,46.5l-25.81 -75.01c51.69,-33.64 126.7,-55.53 205.57,-55.53 191.37,0 237.87,130.54 237.87,255.99l0 234c0,54.32 2.57,107.33 10.34,149.98l-103.41 0z"/>
   <path class="fil0" d="M14224.83 23179.43l122.84 351.61c20.64,56.99 37.48,108.66 50.41,160.32l3.85 0c14.25,-51.66 32.37,-103.33 52.99,-160.32l121.58 -351.61 118.94 0 -245.69 625.75 -108.57 0 -237.87 -625.75 121.52 0z"/>
   <path class="fil0" d="M15039.56 23485.83c-124.15,-2.57 -265.05,19.44 -265.05,140.9 0,73.68 49.09,108.65 107.33,108.65 81.44,0 133.11,-51.74 151.23,-104.73 3.92,-11.68 6.49,-24.61 6.49,-36.17l0 -108.65zm16.85 319.39l-9.09 -78.87 -3.84 0c-34.95,49.09 -102.21,93.07 -191.42,93.07 -126.7,0 -191.32,-89.21 -191.32,-179.76 0,-151.24 134.46,-234.01 376.25,-232.68l0 -12.93c0,-51.69 -14.28,-144.82 -142.22,-144.82 -58.24,0 -118.99,18.05 -162.92,46.5l-25.86 -74.95c51.67,-33.63 126.7,-55.59 205.55,-55.59 191.37,0 237.94,130.54 237.94,256.04l0 234.02c0,54.25 2.58,107.31 10.29,149.97l-103.36 0z"/>
   <path class="fil0" d="M11879.66 22203.56c6.19,-43.34 12.68,-86.57 19.19,-129.85 17.72,-117.34 36.09,-234.58 55.01,-351.81 27.83,-172.75 56.84,-345.3 86.94,-517.68 36.6,-209.47 74.91,-418.68 115.15,-627.47 43.92,-227.52 90.1,-454.65 139.5,-681.04 49.54,-227.01 102.28,-453.38 160.01,-678.45 59.88,-233.07 127.51,-463.73 200.64,-692.95 0.5,-1.71 1.02,-3.48 0.5,-5.18 -0.75,-2.58 -3.72,-3.78 -6.37,-4.35 -11.23,-2.52 -23.16,0.7 -33.12,6.49 -54.64,31.5 -74.21,102.91 -98.42,156.6 -39.81,88.41 -71.61,180.46 -101.41,272.69 -49.83,154.46 -92.61,311.18 -132.8,468.41 -60.7,237.24 -114.96,476.24 -166.38,715.68 -11.36,52.99 -22.59,106.06 -33.69,159.07 -5.82,27.76 -11.56,55.51 -17.23,83.27 -5.11,24.74 -17.29,55.84 -16.65,80.95 -2.21,-84.42 -4.99,-168.83 -7.88,-253.25 -6.32,-186.33 -13.58,-372.58 -22.59,-558.83 -9.09,-188.01 -16.35,-376.48 -35.92,-563.81 -17.09,-164.04 -32.99,-294.83 -68.19,-280.25 -9.21,3.84 -13.13,41.38 -14.45,52.62 -18.37,157.1 -24.11,302.59 -22.02,460.01 2.33,193.77 4.72,387.46 6.24,581.15 1.65,218.06 2.2,436.18 0.33,654.23 -1.78,206.82 -5.57,413.7 -14.83,620.34 -7.21,160.07 -16.1,321.02 -39.26,479.76 -0.75,4.92 -1.45,9.84 -2.27,14.7 -0.5,3.6 0.2,9.46 -2.02,12.51 -5.29,7.24 -5.35,0.37 -9.77,-4.74 -15.65,-18.1 -18.29,-63.85 -22.98,-85.82 -16.27,-76.45 -29.08,-153.68 -41.56,-230.85 -23.79,-146.25 -45.05,-292.94 -65.69,-439.7 -33.38,-237.3 -64.68,-474.85 -95.2,-712.52 -15.78,-123.1 -32.75,-222.97 -63.35,-343.68 -4.1,-16.22 -20.82,-65.94 -38.17,-65.04 -21.01,1.07 -21.14,34.89 -20.84,47.37 8.84,316.17 21.52,429.55 27.83,516.56 9.46,130.41 13.38,250.79 24.04,381.09 0.07,0.57 -0.05,1.57 0.13,2.07 0,0 -611.18,-1332.85 -662.48,-1285.53 -51.24,47.32 591.51,1314.5 899.09,2747.23l120.94 0z"/>
  </g>
 </g>
</svg>
